:SAMPLES-PER-SECOND 30
:FULLY-SPECIFIED
:DEGREES
274
root  11.16148881 40.42177876 -2.539711111 -0.9890288711 -15.25489902 -14.88949871
lfemur  -30.74510002 -2.123179913 8.964690208
ltibia  -1.491570742e-006 -8.364404493e-007 50.26329803
lfoot  5.521815751e-007 4.827412605 13.22099972
ltoes  -4.250644065 -19.5611806 -102.515957
rfemur  -4.30882597 16.50779915 14.38219833
rtibia  -8.727266732e-007 2.533748784e-007 35.06699371
rfoot  -2.316020982e-006 15.3822031 14.11059952
rtoes  5.373923086 19.29304026 -105.8922705
lowerback  7.992050171 5.640580177 -3.8285501
upperback  4.284110069 7.126170158 -4.677559853
thorax  0.1339029968 3.526040077 -3.254839897
rclavicle  0 -9.442270133e-015 7.951389973e-016
rhumerus  -18.02669907 4.200630188 -74.97059631
rradius  -7.782816926e-012 0.001642658608 119.4810028
rwrist  0.002739921212 0.003270594636 3.981440067
rthumb  -92.93752616 -24.25625642 -97.11982154
rhand  -7.920061211e-032 -33.2840004 9.303460121
rfingers  -90 -7.125020027 -90
lclavicle  0 -9.442270133e-015 7.951389973e-016
lhumerus  10.39110088 -19.99259949 70.00980377
lradius  1.032090038e-011 0.005718162749 141.0469971
lwrist  1.816137865e-011 1.409039812e-011 12.32520008
lthumb  89.89689403 5.08795885 91.16245106
lhand  -1.496451383e-031 -27.76390076 20.11240005
lfingers  90 7.125020027 -90
lowerneck  6.578810215 3.438529968 -5.6979599
upperneck  13.09379959 2.525899172 22.25499916
head  2.190539837 1.575080037 7.905489922
275
root  11.28164427 40.71533323 -2.592066705 -0.8791780472 -17.4762001 -14.62789917
lfemur  -29.45460129 -2.731559992 9.026379585
ltibia  -1.491570742e-006 -8.364404493e-007 49.36940002
lfoot  5.521815751e-007 6.436230183 14.19529915
ltoes  -4.250644065 -19.5611806 -102.515957
rfemur  -4.972818851 16.88240051 13.78169823
rtibia  -8.727266732e-007 2.533748784e-007 34.49049759
rfoot  -2.316020982e-006 16.24080276 11.79569912
rtoes  5.373923086 19.29304026 -105.8922705
lowerback  7.944359779 5.293859959 -3.805069923
upperback  4.293769836 6.666830063 -4.786369801
thorax  0.1723940074 3.296139956 -3.338000059
rclavicle  0 -9.442270133e-015 7.951389973e-016
rhumerus  -18.12849998 4.424349308 -75.64369965
rradius  -7.782817793e-012 0.001642658608 120.5240021
rwrist  0.002739921212 0.003270594636 3.415740252
rthumb  -92.93752616 -24.25625642 -97.11982154
rhand  -7.920061211e-032 -33.2840004 9.303460121
rfingers  -90 -7.125020027 -90
lclavicle  0 -9.442270133e-015 7.951389973e-016
lhumerus  10.48999977 -18.29610062 69.19539642
lradius  1.032090038e-011 0.005718162749 141.5579987
lwrist  1.816137865e-011 1.409039812e-011 12.68610001
lthumb  89.89689403 5.08795885 91.16245106
lhand  -1.496451383e-031 -27.76390076 20.11240005
lfingers  90 7.125020027 -90
lowerneck  6.457190037 4.21337986 -5.812210083
upperneck  13.87819958 3.503240824 21.49760056
head  2.322410107 2.067620039 7.673379898
276
root  11.39993367 40.99244546 -2.64893329 -0.8486799002 -19.61560059 -14.22980118
lfemur  -28.25310326 -3.480939627 8.9120121
ltibia  -1.491570742e-006 -8.364404493e-007 48.54360199
lfoot  5.521815751e-007 8.155077934 14.73390102
ltoes  -4.250644065 -19.5611806 -102.515957
rfemur  -5.602181911 17.27470016 13.1855011
rtibia  -8.727266732e-007 2.533748784e-007 34.28740311
rfoot  -2.316020982e-006 15.81309986 7.72740984
rtoes  5.373923086 19.29304026 -105.8922705
lowerback  8.089289665 4.968870163 -3.890700102
upperback  4.205490112 6.206610203 -4.913879871
thorax  -0.007683380041 3.064830065 -3.405950069
rclavicle  0 -9.442270133e-015 7.951389973e-016
rhumerus  -18.15839958 4.515120506 -76.10510254
rradius  -7.782816926e-012 0.001642658608 121.6309967
rwrist  0.002739921212 0.003270594636 2.783790112
rthumb  -92.93752616 -24.25625642 -97.11982154
rhand  -7.920061211e-032 -33.2840004 9.303460121
rfingers  -90 -7.125020027 -90
lclavicle  0 -9.442270133e-015 7.951389973e-016
lhumerus  10.52869987 -16.70149994 68.36090088
lradius  1.032089952e-011 0.005718162749 141.9940033
lwrist  1.816137865e-011 1.409039812e-011 13.13570023
lthumb  89.89689403 5.08795885 91.16245106
lhand  -1.496451383e-031 -27.76390076 20.11240005
lfingers  90 7.125020027 -90
lowerneck  6.478059769 4.928899765 -5.830470085
upperneck  14.5909996 4.432549477 20.58320045
head  2.435500145 2.519979954 7.371789932
277
root  11.51380013 41.25133424 -2.70451129 -0.9094029665 -21.61610031 -13.62810135
lfemur  -27.16999626 -4.336829662 8.533150673
ltibia  -1.491570742e-006 -8.364404493e-007 47.84469223
lfoot  5.521815751e-007 9.766332626 14.73110008
ltoes  -4.250644065 -19.5611806 -102.515957
rfemur  -6.25901413 17.39599991 12.49470043
rtibia  -8.727266732e-007 2.533748784e-007 34.45328903
rfoot  -2.316020982e-006 14.43240452 1.980689287
rtoes  5.373923086 19.29304026 -105.8922705
lowerback  8.385339737 4.689109802 -4.186049938
upperback  3.998680115 5.768949986 -5.063960075
thorax  -0.4115720093 2.842789888 -3.401819944
rclavicle  0 -9.442270133e-015 7.951389973e-016
rhumerus  -18.40049934 4.461520195 -76.35769653
rradius  -7.782816926e-012 0.001642658608 122.7570038
rwrist  0.002739921212 0.003270594636 2.069449663
rthumb  -92.93752616 -24.25625642 -97.11982154
rhand  -7.920061211e-032 -33.2840004 9.303460121
rfingers  -90 -7.125020027 -90
lclavicle  0 -9.442270133e-015 7.951389973e-016
lhumerus  10.63379955 -15.3434 67.53749847
lradius  1.032090125e-011 0.005718162749 142.279007
lwrist  1.816137865e-011 1.409039812e-011 13.46339989
lthumb  89.89689403 5.08795885 91.16245106
lhand  -1.496451383e-031 -27.76390076 20.11240005
lfingers  90 7.125020027 -90
lowerneck  6.580639839 5.51940012 -5.744420052
upperneck  15.35509968 5.197080135 19.60740089
head  2.589920282 2.887379885 7.040989876
